<?xml version="1.0" encoding="UTF-8"?>
<svg width="752pt" height="752pt" version="1.1" viewBox="0 0 752 752" xmlns="http://www.w3.org/2000/svg">
 <defs>
  <clipPath id="a">
   <path d="m139.21 195h472.79v360h-472.79z"/>
  </clipPath>
 </defs>
 <g clip-path="url(#a)">
  <path d="m539.93 554.5h-329.68c-27.32 0-51-14.57-63.75-40.07-12.75-23.68-9.1055-52.824 7.2852-74.68l163.93-214.93c14.57-18.215 34.609-29.145 56.465-29.145 21.859 0 43.715 10.93 56.465 29.145l165.75 214.93c16.395 21.859 20.035 51 7.2852 74.68-10.934 25.5-36.434 40.07-63.754 40.07zm-163.93-304.18c-3.6445 0-9.1055 1.8203-14.57 7.2852l-163.93 214.93c-5.4648 7.2852-1.8203 16.395-1.8203 18.215 1.8203 3.6445 5.4648 9.1055 14.57 9.1055h329.69c10.93 0 14.57-5.4648 16.395-9.1055 1.8203-3.6445 3.6445-10.93-1.8203-18.215l-165.76-214.93c-3.6406-5.4648-10.926-7.2852-12.75-7.2852z"/>
 </g>
</svg>
